<svg id="Capa_1" enable-background="new 0 0 512 512" height="512" viewBox="0 0 512 512" width="512" xmlns="http://www.w3.org/2000/svg"><g><g><g fill="#f9ef63"><path d="m76.294 108.959 1.865.836c8.52 3.819 15.339 10.638 19.158 19.159l.836 1.865c2.259 5.041 9.416 5.041 11.675 0l.836-1.865c3.819-8.521 10.638-15.34 19.159-19.159l1.865-.836c5.041-2.259 5.041-9.417 0-11.676l-1.865-.836c-8.521-3.819-15.34-10.638-19.158-19.159l-.836-1.865c-2.259-5.041-9.416-5.041-11.675 0l-.836 1.865c-3.819 8.521-10.638 15.34-19.158 19.159l-1.865.836c-5.042 2.259-5.042 9.417-.001 11.676z"/><path d="m3.247 212.118 1.601.718c7.316 3.279 13.171 9.135 16.451 16.451l.718 1.602c1.94 4.329 8.085 4.329 10.025 0l.718-1.601c3.279-7.317 9.134-13.172 16.451-16.452l1.601-.718c4.329-1.94 4.329-8.086 0-10.026l-1.601-.718c-7.316-3.279-13.172-9.134-16.451-16.451l-.718-1.601c-1.94-4.329-8.085-4.329-10.025 0l-.718 1.602c-3.279 7.317-9.134 13.172-16.451 16.451l-1.601.718c-4.329 1.94-4.329 8.085 0 10.025z"/><path d="m459.247 227.558c-54.207-1.26-98.221-45.576-99.132-99.79-.297-17.671 3.922-34.33 11.577-48.901 5.53-10.527-5.084-22.211-16.005-17.506-44.81 19.305-75.955 64.288-74.899 116.418 1.337 66.024 57.802 121.318 123.84 121.341 44.532.016 83.578-23.462 105.432-58.717 6.23-10.051-3.58-22.449-14.736-18.53-11.251 3.953-23.408 5.98-36.077 5.685z"/></g><g><path d="m404.628 280.54c-63.771-.022-118.609-51.587-123.503-114.582-.288 3.895-.418 7.834-.337 11.822 1.337 66.024 57.802 121.318 123.84 121.341 44.532.015 83.579-23.462 105.432-58.717 3.44-5.549 1.985-11.809-1.882-15.648-22.168 33.616-60.265 55.799-103.55 55.784z" fill="#f1cb86"/></g><path d="m320.281 235.862c-17.742-48.058-63.957-82.325-118.178-82.325-68.804 0-124.713 55.178-125.91 123.697-42.991 5.594-76.193 42.353-76.193 86.868 0 48.385 39.224 87.608 87.608 87.608h225.554c59.671 0 108.044-48.373 108.044-108.044.001-57.278-44.573-104.138-100.925-107.804z" fill="#9c8f9a"/><g><g><path d="m320.28 235.862c-17.742-48.058-63.957-82.325-118.178-82.325-23.931 0-46.298 6.681-65.349 18.27 14.46-5.788 30.24-8.98 46.769-8.98 53.11 0 98.538 32.877 117.051 79.388.706 1.775 2.355 3.007 4.257 3.186 54.864 5.163 97.797 51.342 97.797 107.556 0 38.612-20.259 72.487-50.722 91.592 40.532-15.575 69.303-54.866 69.303-100.883-.001-57.278-44.575-104.138-100.928-107.804z" fill="#8c808a"/></g></g></g></g></svg>