<svg height="512pt" viewBox="0 0 512 512" width="512pt" xmlns="http://www.w3.org/2000/svg"><path d="m506.75 511.402344h-501.5c-2.898438 0-5.25-2.347656-5.25-5.25v-15.910156c0-2.898438 2.351562-5.25 5.25-5.25h501.5c2.898438 0 5.25 2.347656 5.25 5.25v15.910156c0 2.902344-2.351562 5.25-5.25 5.25zm0 0" fill="#00b965"/><path d="m506.5625 484.992188h-39.332031c3.003906 0 5.4375 2.433593 5.4375 5.4375v15.539062c0 3-2.433594 5.4375-5.4375 5.4375h39.332031c3.003906 0 5.4375-2.4375 5.4375-5.4375v-15.539062c0-3.003907-2.433594-5.4375-5.4375-5.4375zm0 0" fill="#00a855"/><path d="m312.222656 511.480469h-52.195312c-1.761719 0-3.171875-1.464844-3.105469-3.222657l11.316406-299.695312h35.773438l11.316406 299.695312c.066406 1.757813-1.34375 3.222657-3.105469 3.222657zm0 0" fill="#b9acac"/><path d="m304.011719 208.5625h-13.976563l5.042969 280.738281c.113281 6.347657-5 11.550781-11.347656 11.550781h-26.527344l-.28125 7.40625c-.066406 1.757813 1.34375 3.222657 3.105469 3.222657h52.195312c1.761719 0 3.171875-1.464844 3.101563-3.222657zm0 0" fill="#9e9797"/><path d="m300.066406 194.714844 50.132813-181.503906c1.535156-5.554688-1.726563-11.300782-7.277344-12.832032-4.863281-1.34375-9.988281.984375-12.179687 5.527344l-45.855469 95.214844c-11.914063 24.734375-15.183594 52.75-9.285157 79.5625l1.730469 7.863281zm0 0" fill="#b9acac"/><path d="m342.921875.378906c-2.949219-.816406-5.992187-.273437-8.417969 1.289063 1.101563 2.21875 1.429688 4.828125.71875 7.40625l-50.132812 181.503906-7.777344-2.109375.019531.082031 22.734375 6.164063 50.132813-181.503906c1.535156-5.554688-1.726563-11.300782-7.277344-12.832032zm0 0" fill="#9e9797"/><path d="m280.519531 215.390625 115.578125 148.652344c3.539063 4.550781 10.09375 5.367187 14.640625 1.832031 3.980469-3.097656 5.179688-8.597656 2.84375-13.066406l-48.945312-93.664063c-12.714844-24.332031-33.226563-43.695312-58.25-54.988281l-7.339844-3.3125zm0 0" fill="#b9acac"/><path d="m413.582031 352.808594-48.945312-93.664063c-12.714844-24.332031-33.226563-43.695312-58.25-54.988281l-7.339844-3.3125-11.105469 8.71875 5.613282 2.535156c25.023437 11.292969 45.535156 30.652344 58.25 54.984375l48.941406 93.664063c1.15625 2.214844 1.445312 4.679687.960937 6.980468 3.027344.785157 6.371094.21875 9.03125-1.851562 3.980469-3.097656 5.179688-8.597656 2.84375-13.066406zm0 0" fill="#9e9797"/><path d="m278.550781 189.808594-180.820312 52.550781c-5.53125 1.609375-8.710938 7.398437-7.105469 12.929687 1.410156 4.84375 6.078125 7.984376 11.097656 7.464844l105.117188-10.917968c27.304687-2.835938 52.871094-14.753907 72.601562-33.839844l5.789063-5.601563zm0 0" fill="#b9acac"/><path d="m280.875 197.671875-5.390625 5.214844c-20.523437 19.859375-47.117187 32.253906-75.523437 35.203125l-109.320313 11.355468c-.542969 1.84375-.589844 3.859376-.015625 5.84375 1.410156 4.84375 6.078125 7.984376 11.097656 7.464844l105.117188-10.917968c27.304687-2.835938 52.871094-14.75 72.601562-33.839844l5.789063-5.597656zm0 0" fill="#9e9797"/><path d="m291.117188 184.394531c-10.734376-2.964843-21.839844 3.335938-24.804688 14.066407-2.964844 10.734374 3.335938 21.839843 14.070312 24.804687 10.730469 2.964844 21.835938-3.335937 24.800782-14.066406 2.964844-10.734375-3.332032-21.839844-14.066406-24.804688zm0 0" fill="#efe2dd"/><path d="m296.910156 187.042969c.28125 2.488281.113282 5.066406-.59375 7.625-2.964844 10.734375-14.070312 17.03125-24.804687 14.066406-2.113281-.582031-4.046875-1.492187-5.777344-2.640625.898437 7.9375 6.484375 14.921875 14.660156 17.179688 10.734375 2.964843 21.835938-3.335938 24.800781-14.070313 2.382813-8.617187-1.21875-17.46875-8.285156-22.160156zm0 0" fill="#e1d3ce"/><path d="m165.386719 511.578125h-27.597657c-.933593 0-1.679687-.773437-1.644531-1.707031l5.984375-158.472656h18.917969l5.980469 158.472656c.035156.933594-.707032 1.707031-1.640625 1.707031zm0 0" fill="#b9acac"/><path d="m161.046875 351.398438h-7.390625l2.664062 148.449218c.0625 3.355469-2.640624 6.109375-6 6.109375h-14.027343l-.148438 3.914063c-.035156.933594.710938 1.707031 1.640625 1.707031h27.601563c.929687 0 1.675781-.773437 1.640625-1.707031zm0 0" fill="#9e9797"/><path d="m145.109375 341.886719-99.003906-10.597657c-3.027344-.320312-5.746094 1.871094-6.070313 4.898438-.285156 2.652344 1.367188 5.128906 3.929688 5.878906l53.609375 15.765625c13.929687 4.09375 28.828125 3.398438 42.3125-1.980469l3.957031-1.574218zm0 0" fill="#b9acac"/><path d="m141.65625 346.667969c-13.601562 5.421875-28.632812 6.125-42.683594 1.996093l-54.085937-15.902343c-.671875-.199219-1.28125-.519531-1.8125-.925781-1.632813.808593-2.832031 2.40625-3.042969 4.355468-.28125 2.652344 1.371094 5.125 3.929688 5.878906l53.613281 15.761719c13.929687 4.09375 28.828125 3.398438 42.3125-1.976562l3.953125-1.578125.90625-8.84375zm0 0" fill="#9e9797"/><path d="m157.574219 350.3125 67.652343-73.054688c2.070313-2.234374 1.9375-5.726562-.296874-7.796874-1.957032-1.8125-4.933594-1.964844-7.0625-.363282l-44.675782 33.570313c-11.605468 8.722656-19.953125 21.082031-23.699218 35.109375l-1.097657 4.113281zm0 0" fill="#b9acac"/><path d="m224.929688 269.464844c-1.449219-1.339844-3.449219-1.769532-5.253907-1.257813.050781 1.410157-.433593 2.839844-1.464843 3.957031l-66.980469 72.328126 6.34375 5.820312 67.652343-73.054688c2.070313-2.234374 1.9375-5.726562-.296874-7.792968zm0 0" fill="#9e9797"/><path d="m144.394531 353.53125 42.925781 89.84375c1.3125 2.746094 4.605469 3.910156 7.355469 2.597656 2.40625-1.148437 3.644531-3.855468 2.941407-6.429687l-14.707032-53.910157c-3.820312-14.007812-12.230468-26.324218-23.882812-34.984374l-3.417969-2.539063zm0 0" fill="#b9acac"/><path d="m148.300781 351.644531 3.179688 2.367188c12.121093 9.007812 20.871093 21.820312 24.84375 36.386719l15.300781 56.070312c1.007812.125 2.0625-.023438 3.050781-.496094 2.40625-1.148437 3.644531-3.855468 2.941407-6.429687l-14.707032-53.910157c-3.820312-14.003906-12.230468-26.324218-23.882812-34.980468l-3.417969-2.542969zm0 0" fill="#9e9797"/><path d="m152.222656 337.964844c-5.855468-.625-11.109375 3.613281-11.738281 9.46875-.625 5.855468 3.613281 11.109375 9.46875 11.734375 5.855469.628906 11.109375-3.609375 11.734375-9.464844s-3.613281-11.109375-9.464844-11.738281zm0 0" fill="#efe2dd"/><path d="m141.378906 344.191406c1.273438-.359375 2.632813-.496094 4.027344-.34375 5.855469.625 10.09375 5.878906 9.46875 11.734375-.125 1.152344-.433594 2.238281-.882812 3.242188 4.066406-1.148438 7.230468-4.664063 7.707031-9.121094.625-5.855469-3.613281-11.109375-9.46875-11.738281-4.703125-.5-9.011719 2.136718-10.851563 6.226562zm0 0" fill="#e1d3ce"/></svg>